<svg id="Capa_1" data-name="Capa 1" xmlns="http://www.w3.org/2000/svg" viewBox="0 0 150 35"><defs><style>.cls-1{fill:#7d60f5;}.cls-2{fill:#525252;}</style></defs><title>cliengo150x35</title><path class="cls-1" d="M16.88,17.78a9.09,9.09,0,0,1,2.77-.65c0-.42,0-.91.07-1.46.12-2.05.27-4.87.42-8.55,0-.24,0-.65-.34-.68a.55.55,0,0,0-.54.52l-.74,6.73a.77.77,0,0,1-.7.69.79.79,0,0,1-.81-.55L14.72,6c-.15-.5-.4-.7-.52-.67s-.29.31-.21.82c.1.72,1.25,6.5,1.85,9.46a.79.79,0,0,1-.47.87.78.78,0,0,1-.94-.3c-.13-.2-3.25-5-4.14-6.66-.17-.3-.37-.46-.53-.39a.27.27,0,0,0-.12.36c.82,2.51,3.06,8,3.08,8a.77.77,0,0,1-1.3.8L7.6,13.9a.65.65,0,0,0-.48-.27.34.34,0,0,0-.22.07.26.26,0,0,0,0,.39C9.15,17.66,11,20.78,12.17,23c.06-.23.14-.46.22-.69A7.94,7.94,0,0,1,16.88,17.78Z"/><path class="cls-1" d="M21.62,20.56h0a.55.55,0,0,0,.54-.38.79.79,0,0,0-.3-.88,3.1,3.1,0,0,0-.76-.44q0,.63,0,.84C21.16,20.11,21.35,20.55,21.62,20.56Z"/><path class="cls-1" d="M17.34.26a16.5,16.5,0,1,0,16.5,16.49A16.49,16.49,0,0,0,17.34.26ZM28.42,16.72a10.73,10.73,0,0,0-1.93,2.76A6.88,6.88,0,0,0,26,21.73a8.44,8.44,0,0,1-2.72,6.05,9.09,9.09,0,0,1-5.73,2.32A6.2,6.2,0,0,1,16.52,30a5.43,5.43,0,0,1-3.92-3h0c0-.06-.06-.11-.08-.16-.45-.89-3-5.73-7-12A1.8,1.8,0,0,1,6,12.46a2,2,0,0,1,2.78.42l.84.95C9.05,12.43,8.5,11,8.17,10a1.82,1.82,0,0,1,1-2.27,1.94,1.94,0,0,1,2.5,1.07c.35.66,1.1,1.88,1.86,3.09-.46-2.36-1-5-1-5.48A2.1,2.1,0,0,1,13.87,3.8,2.08,2.08,0,0,1,16.2,5.55l1.21,4.12.31-2.88a2.08,2.08,0,0,1,2.2-1.89,2,2,0,0,1,1.77,2.29c-.16,3.69-.31,6.51-.42,8.57,0,.55-.06,1.06-.08,1.51a4.47,4.47,0,0,1,1.62.8,2.36,2.36,0,0,1,.82,2.62,2.07,2.07,0,0,1-2,1.41,2.21,2.21,0,0,1-2-2.24,11,11,0,0,1,0-1.18,7.93,7.93,0,0,0-2.14.54,6.36,6.36,0,0,0-3.59,3.62,4.19,4.19,0,0,0,.06,3.35l.07.14a3.9,3.9,0,0,0,2.82,2.16,7.15,7.15,0,0,0,5.48-1.86,6.94,6.94,0,0,0,2.21-5.07,8.05,8.05,0,0,1,.61-2.74,12.61,12.61,0,0,1,2.17-3.14c.78-.85.75-.9.6-1.13a1.35,1.35,0,0,0-1.12-.35A3.43,3.43,0,0,0,24,16.25a.77.77,0,0,1-1.38-.7,4.93,4.93,0,0,1,4.05-2.89,2.76,2.76,0,0,1,2.5,1.05C30,15,29.18,15.86,28.42,16.72Z"/><path class="cls-2" d="M51.41,8.58a7.76,7.76,0,0,1,5.68,2.48,1.57,1.57,0,0,0,1.17.5A1.61,1.61,0,0,0,59.4,8.83a11,11,0,0,0-8-3.37,11.21,11.21,0,1,0,0,22.42,11,11,0,0,0,8-3.37,1.61,1.61,0,1,0-2.31-2.23,7.76,7.76,0,0,1-5.68,2.48,8.09,8.09,0,0,1,0-16.18Z"/><path class="cls-2" d="M64.26,5.13a1.61,1.61,0,0,0-1.6,1.61v19.2a1.61,1.61,0,1,0,3.21,0V6.74A1.61,1.61,0,0,0,64.26,5.13Z"/><ellipse class="cls-2" cx="71.3" cy="7.17" rx="1.94" ry="1.97"/><path class="cls-2" d="M71.3,11.89a1.6,1.6,0,0,0-1.6,1.6V25.94a1.61,1.61,0,1,0,3.21,0V13.49A1.61,1.61,0,0,0,71.3,11.89Z"/><path class="cls-2" d="M83.81,11.55a7.73,7.73,0,0,0-5.51,2.31,8.21,8.21,0,0,0-2.39,5.85c0,5.12,3.21,8.17,8.54,8.17a15.61,15.61,0,0,0,5-.9,1.49,1.49,0,0,0-1-2.82,12.85,12.85,0,0,1-4,.74c-2.57,0-4.23-.95-4.93-2.83l-.19-.51H90.11A1.6,1.6,0,0,0,91.71,20v-.3A8,8,0,0,0,83.81,11.55ZM79.2,18.68l.13-.48a4.57,4.57,0,0,1,9,0l.14.48Z"/><path class="cls-2" d="M103.18,11.55a6.72,6.72,0,0,0-4.86,2l-.59.6-.06-.83a1.61,1.61,0,0,0-3.21.12V25.94a1.61,1.61,0,1,0,3.21,0V19.21a4.52,4.52,0,1,1,9,0v6.72a1.61,1.61,0,1,0,3.21,0V18.21A6.71,6.71,0,0,0,103.18,11.55Z"/><path class="cls-2" d="M127.09,11.69a1.61,1.61,0,0,0-1.61,1.6v1.18l-.65-.69a7.06,7.06,0,0,0-5.09-2.23c-4.08,0-7.41,3.67-7.41,8.18s3.33,8.15,7.41,8.15a7,7,0,0,0,5.08-2.22l.66-.68v1.49c0,3.43-1.9,5.32-5.36,5.33h0a12.68,12.68,0,0,1-4.82-1.05,1.67,1.67,0,0,0-.62-.12,1.6,1.6,0,0,0-.62,3.08A15.91,15.91,0,0,0,120,35h.11c5.29,0,8.57-3.32,8.57-8.53V13.29A1.6,1.6,0,0,0,127.09,11.69ZM120.56,24.9a5.18,5.18,0,1,1,5-5.17A5.1,5.1,0,0,1,120.56,24.9Z"/><path class="cls-2" d="M139.36,11.43a8.26,8.26,0,1,0,8.26,8.26A8.27,8.27,0,0,0,139.36,11.43Zm0,13.46a5.2,5.2,0,1,1,5.2-5.2A5.21,5.21,0,0,1,139.36,24.89Z"/></svg>